<svg width="22" height="16" viewBox="0 0 22 16" fill="none" xmlns="http://www.w3.org/2000/svg">
<path d="M0.0493164 4.88794C1.35848 5.27864 2.66878 5.66476 3.97491 6.06538C4.17413 6.12642 4.23674 6.07682 4.29783 5.88987C5.33833 2.71123 8.27237 0.703552 11.5699 1.0023C14.1833 1.23924 16.1042 2.58456 17.3208 4.93296C17.413 5.11076 17.3834 5.18401 17.1952 5.23247C16.8992 5.3084 16.6024 5.38661 16.3163 5.49192C16.1274 5.56136 16.0545 5.49764 15.9661 5.33701C14.2945 2.29573 10.4517 1.42467 7.64815 3.45791C6.6752 4.16338 6.00658 5.10351 5.62483 6.25195C5.55235 6.47058 5.59333 6.55337 5.81153 6.61785C7.47815 7.11081 9.14211 7.61406 10.8065 8.11617C10.9518 8.16005 11.0869 8.13716 11.2273 8.09481C14.5385 7.09822 17.8501 6.10315 21.1621 5.10885C21.4357 5.02682 21.712 4.9528 22 4.89862C21.6809 5.06192 21.3636 5.22789 21.0426 5.38776C20.0837 5.8643 19.1263 6.3439 18.1617 6.80901C17.9776 6.89752 17.9515 7.00245 17.9712 7.1894C18.3305 10.5989 16.4825 13.5776 13.2931 14.7344C12.9163 14.871 12.5266 14.9675 12.1217 15.0271C12.1164 14.8962 12.2219 14.8477 12.2894 14.7798C13.1994 13.8607 14.1185 12.9503 15.0227 12.0255C16.1535 10.8694 16.6783 9.47141 16.6389 7.85214C16.6336 7.62818 16.5774 7.59346 16.3793 7.69342C15.56 8.10702 14.7358 8.51069 13.9124 8.91551C13.7948 8.97312 13.7299 9.05858 13.6737 9.18068C13.1523 10.315 12.2704 10.9415 11.022 10.9549C9.75875 10.9682 8.86435 10.3455 8.32474 9.20777C8.2534 9.05782 8.16423 8.96015 8.02079 8.88956C5.69731 7.74493 3.37231 6.60297 1.05491 5.44575C0.714523 5.27597 0.344164 5.1512 0.0553892 4.88488L0.0500761 4.88755L0.0493164 4.88794Z" fill="#FA1E32"/>
<path d="M9.87375 15.0236C6.57049 14.4997 4.06183 11.6504 3.95178 8.33477C3.94305 8.07723 4.00794 8.02305 4.22234 8.16384C4.23031 8.16918 4.23942 8.17262 4.24777 8.17681C4.5817 8.34202 4.94599 8.46564 5.24121 8.6835C5.5649 8.92235 5.4522 9.36647 5.56945 9.71024C5.86202 10.5691 6.28361 11.3425 6.92187 11.9884C7.82349 12.9015 8.73117 13.8084 9.63431 14.7199C9.71969 14.8061 9.83011 14.8744 9.87375 15.024V15.0236Z" fill="#FA1E32"/>
<path d="M11.0231 3.121C11.1116 3.67538 11.2129 4.22786 11.2819 4.78453C11.3138 5.04131 11.4106 5.15348 11.672 5.2069C12.3111 5.33739 12.8268 5.6907 13.2495 6.18861C13.3694 6.32978 13.3447 6.38625 13.1762 6.43585C12.5069 6.63196 11.8394 6.83304 11.1727 7.03716C11.0482 7.07532 10.9336 7.07493 10.8095 7.03678C10.1428 6.83189 9.47606 6.62777 8.8063 6.4328C8.62225 6.37938 8.62643 6.30994 8.73799 6.18212C9.18007 5.67734 9.71094 5.31869 10.3746 5.19011C10.5685 5.15272 10.6608 5.07412 10.6885 4.86618C10.7662 4.2828 10.8691 3.70247 10.9624 3.121H11.0231Z" fill="#FA1E32"/>
<path d="M0.0546434 4.88488C0.036429 4.88488 0.0182144 4.88488 0 4.88526C0.00758935 4.88526 0.0147979 4.88411 0.0223873 4.88488C0.031115 4.88564 0.0398429 4.88755 0.0485706 4.88831C0.0489501 4.88793 0.0542636 4.88488 0.0542636 4.88488H0.0546434Z" fill="#FA1E32"/>
</svg>
