<svg width="22" height="20" viewBox="0 0 22 20" fill="none" xmlns="http://www.w3.org/2000/svg">
<path d="M14.6993 8.9041C14.2783 8.71673 13.8563 8.531 13.4364 8.34087C13.2835 8.27143 13.1816 8.35741 13.0588 8.42905C12.2662 8.89087 11.4643 9.33672 10.6745 9.8024C10.4279 9.94789 10.2497 9.93411 10.0447 9.72359C9.19299 8.85064 8.32918 7.98872 7.46756 7.12514C7.26312 6.92068 7.04168 6.73331 6.84272 6.52389C6.58182 6.24944 6.63608 6.02569 6.99893 5.91161C7.4418 5.77218 7.89124 5.65425 8.33959 5.53245C8.58021 5.46687 8.80493 5.51592 9.0324 5.62063C10.3555 6.2285 11.6858 6.82203 13.0073 7.43376C13.2353 7.53957 13.4079 7.49383 13.6047 7.37754C14.514 6.84132 15.4249 6.30785 16.3414 5.78486C16.5913 5.64212 16.8539 5.50214 17.1285 5.4294C17.402 5.3572 17.4074 5.24092 17.3 5.0337C16.7229 3.92048 15.9796 2.94447 14.9322 2.24071C12.2564 0.443016 9.45608 0.28485 6.69912 1.92163C4.18222 3.41567 3.0153 5.76392 3.09423 8.71452C3.11835 9.60731 3.31676 10.4632 3.65385 11.2882C3.70208 11.4067 3.81718 11.5521 3.57766 11.6045C3.39295 11.6447 3.17974 11.7957 3.07121 11.4987C2.92432 11.0969 2.74728 10.704 2.67877 10.2763C2.65081 10.1011 2.60203 9.97159 2.3943 10.1105C1.71959 10.5596 1.08488 11.0506 0.706688 11.7968C0.472647 12.2592 0.610221 12.4802 1.11831 12.516C1.79139 12.5634 2.39869 12.289 3.0301 12.138C3.67687 11.9837 4.31596 11.7946 4.95888 11.6238C5.10468 11.5852 5.26144 11.5406 5.39079 11.6513C5.47958 11.7268 5.51576 11.8398 5.47794 11.9622C5.4319 12.1115 5.32337 12.1688 5.17593 12.2074C4.25292 12.4488 3.33211 12.6995 2.41129 12.9486C2.28194 12.9834 2.10381 12.9828 2.09942 13.1625C2.09449 13.378 2.28468 13.4099 2.44528 13.4369C2.972 13.5257 3.46585 13.3521 3.96133 13.2203C5.28391 12.8698 6.60375 12.5078 7.92468 12.1506C8.1368 12.0933 8.34836 12.0933 8.40975 12.3485C8.47278 12.6108 8.27053 12.6924 8.0617 12.748C7.2379 12.969 6.41575 13.195 5.5914 13.4132C5.13921 13.5328 5.12551 13.5488 5.4445 13.8712C7.08389 15.5262 8.7293 17.1756 10.3687 18.83C10.4925 18.9551 10.5835 19.0207 10.7359 18.8642C12.5874 16.9596 14.5228 15.1376 16.3227 13.1818C16.9531 12.4967 17.3587 11.6684 17.6722 10.7944C17.7056 10.7012 17.7034 10.58 17.8043 10.5315C17.972 10.451 18.1737 10.3078 18.3293 10.4119C18.4719 10.5067 18.3447 10.7134 18.2965 10.8616C17.8602 12.208 17.1093 13.3526 16.1095 14.3457C14.3216 16.1208 12.5419 17.9036 10.7671 19.6914C10.5978 19.8622 10.509 19.8518 10.3478 19.6886C8.48977 17.8094 6.62183 15.9389 4.76485 14.0586C4.55329 13.8442 4.37515 13.7235 4.04793 13.8359C3.5371 14.0112 3.0027 14.1153 2.45405 14.0602C1.97939 14.0128 1.60558 13.8216 1.4828 13.3162C1.4269 13.0875 1.26027 13.1636 1.12215 13.1564C0.18818 13.1096 -0.201522 12.5232 0.100484 11.6442C0.262723 11.1713 0.590489 10.8252 0.923737 10.4841C1.2948 10.1044 1.72123 9.78642 2.17506 9.51638C2.40581 9.3786 2.47597 9.23035 2.46172 8.96913C2.34442 6.77243 2.94679 4.80114 4.3472 3.09823C6.40588 0.595672 10.0053 -0.456384 13.0511 0.581894C15.283 1.34297 16.9443 2.77969 17.932 4.95655C18.0235 5.15825 18.1435 5.22494 18.3644 5.21943C19.7018 5.18636 20.8029 5.7077 21.6975 6.69363C22.0756 7.11026 22.0998 7.26126 21.7671 7.70931C20.9531 8.80655 19.8799 9.55991 18.576 9.9275C16.029 10.6456 13.4704 11.3201 10.9168 12.0145C10.6893 12.0762 10.4794 12.0785 10.2667 11.9467C9.93567 11.7417 9.58598 11.5676 9.25657 11.3609C9.0472 11.2292 8.84988 11.2061 8.61474 11.2783C8.14666 11.4221 7.672 11.5422 7.20063 11.675C6.99345 11.7335 6.79449 11.7516 6.66787 11.5345C6.18225 10.704 5.70102 9.87018 5.21923 9.03747C5.13208 8.88702 5.08276 8.73546 5.22033 8.58501C5.37983 8.41031 5.55138 8.50069 5.70102 8.58556C6.71666 9.16257 7.7301 9.74398 8.73971 10.332C8.94799 10.4533 9.1338 10.4792 9.37716 10.4119C11.1426 9.92474 12.9141 9.45851 14.6839 8.98566C14.6894 8.95811 14.6943 8.93055 14.6998 8.903L14.6993 8.9041ZM14.0037 7.8796C14.6346 8.16783 15.169 8.41362 15.7045 8.65666C15.8788 8.73601 16.0635 8.80545 16.0481 9.04849C16.0328 9.29373 15.8311 9.34333 15.653 9.39183C14.6231 9.67289 13.5915 9.94624 12.56 10.2207C11.7707 10.4307 10.9809 10.6362 10.1933 10.8517C10.1039 10.8759 9.85072 10.9217 10.0245 11.0435C10.2777 11.2209 10.5238 11.4579 10.936 11.3433C13.2594 10.6963 15.5888 10.0719 17.9232 9.46733C19.1526 9.14879 20.183 8.52715 21.0529 7.60735C21.2787 7.36873 21.3056 7.19238 21.0545 6.94658C20.4675 6.37123 19.7796 6.01632 18.9717 5.89398C18.0345 5.75234 17.1887 5.99207 16.3885 6.48751C15.6332 6.9554 14.8544 7.38471 14.0037 7.87905V7.8796ZM8.55445 6.13481C8.30068 6.20866 8.05896 6.27479 7.82054 6.34974C7.66214 6.39934 7.71037 6.47539 7.79861 6.56357C8.60762 7.37203 9.41662 8.18105 10.2201 8.99503C10.378 9.15485 10.5172 9.17469 10.714 9.05345C11.2259 8.73601 11.751 8.44007 12.2673 8.13035C12.3457 8.08351 12.4882 8.07359 12.4646 7.94132C12.4482 7.84929 12.3336 7.83827 12.2553 7.80245C11.2752 7.3533 10.2958 6.90139 9.31467 6.45445C9.06474 6.34037 8.80822 6.24117 8.55445 6.13481ZM8.11049 10.6952C7.52785 10.364 7.00167 10.0647 6.47549 9.76547C6.60758 10.1463 6.78517 10.461 6.96275 10.7756C6.98139 10.8082 7.00496 10.8385 7.0214 10.8721C7.07347 10.9785 7.16117 11.0281 7.26695 10.9807C7.51744 10.8682 7.80903 10.8853 8.11103 10.6946L8.11049 10.6952Z" fill="#FC6CFF"/>
</svg>
