<svg width="24" height="24" viewBox="0 0 24 24" fill="none" xmlns="http://www.w3.org/2000/svg">
<path d="M6 21V19.4C6.43333 19.1333 6.825 18.8375 7.175 18.5125C7.525 18.1875 7.825 17.8417 8.075 17.475C8.325 17.1083 8.51667 16.7167 8.65 16.3C8.78333 15.8833 8.85 15.45 8.85 15C8.85 14.7833 8.8375 14.575 8.8125 14.375C8.7875 14.175 8.75 13.9667 8.7 13.75H6V12.25H7.95C7.3 11.35 6.85417 10.5542 6.6125 9.8625C6.37083 9.17083 6.25 8.46667 6.25 7.75C6.25 6.28333 6.75833 5.04167 7.775 4.025C8.79167 3.00833 10.0333 2.5 11.5 2.5C12.5833 2.5 13.5625 2.77083 14.4375 3.3125C15.3125 3.85417 15.9583 4.58333 16.375 5.5L15 6.075C14.7 5.44167 14.2292 4.9375 13.5875 4.5625C12.9458 4.1875 12.25 4 11.5 4C10.4667 4 9.58333 4.3625 8.85 5.0875C8.11667 5.8125 7.75 6.7 7.75 7.75C7.75 8.4 7.88333 9.0375 8.15 9.6625C8.41667 10.2875 8.95 11.15 9.75 12.25H14V13.75H10.225C10.275 13.9667 10.3083 14.1833 10.325 14.4C10.3417 14.6167 10.35 14.8167 10.35 15C10.35 15.8833 10.1583 16.7083 9.775 17.475C9.39167 18.2417 8.90833 18.9167 8.325 19.5H14C14.6333 19.5 15.1917 19.3333 15.675 19C16.1583 18.6667 16.5083 18.125 16.725 17.375L18.025 18.025C17.8083 19.0083 17.3042 19.75 16.5125 20.25C15.7208 20.75 14.8833 21 14 21H6Z" fill="#21052D"/>
</svg>
