<svg width="11" height="19" viewBox="0 0 11 19" fill="none" xmlns="http://www.w3.org/2000/svg">
<path d="M5.46152 14.877V17.7618H3.64609V14.877H5.46152ZM5.858 1.2374C6.43324 1.23742 6.99343 1.33078 7.53769 1.51669L7.74179 1.58603C8.2124 1.76078 8.63583 2.01487 9.01035 2.34775H9.00937C9.4521 2.72796 9.79844 3.20096 10.0494 3.76279C10.3222 4.32451 10.4537 4.9879 10.4537 5.74423C10.4537 6.35995 10.3689 6.89775 10.191 7.35068L10.19 7.35361C10.0144 7.78466 9.76539 8.16204 9.44394 8.48349C9.14766 8.77977 8.81363 9.04415 8.44199 9.27646C8.08064 9.5023 7.70393 9.72128 7.31308 9.93173C6.98304 10.1186 6.66726 10.3271 6.36581 10.5567C6.09125 10.766 5.86211 11.0581 5.6832 11.4435L5.68222 11.4464C5.51227 11.7993 5.4166 12.3141 5.4166 13.0099V13.2599H3.6246V13.0099C3.6246 12.3405 3.69241 11.7584 3.83456 11.2686L3.83652 11.2638C3.99278 10.7637 4.213 10.3268 4.50156 9.9581L4.50644 9.95322C4.77169 9.63215 5.09585 9.35077 5.47617 9.10751L5.64218 9.00497C5.92829 8.82454 6.25048 8.63711 6.608 8.44345L6.61191 8.4415C6.9684 8.25609 7.29541 8.04289 7.59335 7.80185L7.81015 7.60751C8.01544 7.40487 8.1893 7.17493 8.33359 6.91806C8.51809 6.57542 8.61675 6.15771 8.61679 5.65536C8.61679 5.03918 8.47677 4.55855 8.21738 4.1954L8.21152 4.18759C7.95474 3.79566 7.6201 3.50748 7.2037 3.31943L7.19785 3.31747C6.77179 3.11132 6.31846 3.00792 5.83554 3.0079C5.34993 3.0079 4.88577 3.10476 4.44199 3.29892L4.43906 3.2999C4.00642 3.48132 3.62383 3.73256 3.28964 4.05283C2.95261 4.37582 2.67931 4.73969 2.46933 5.1456L2.34335 5.38876L2.11288 5.2413L1.06503 4.57333L0.881439 4.45517L0.973236 4.25693C1.26891 3.61901 1.66728 3.07158 2.16855 2.61728L2.17148 2.61435C2.68485 2.16323 3.26163 1.82055 3.89999 1.58701C4.5362 1.35427 5.18942 1.2374 5.858 1.2374Z" fill="#01C2D2" stroke="#6C9DE8" stroke-width="0.5"/>
</svg>
