<svg width="24" height="24" viewBox="0 0 24 24" fill="none" xmlns="http://www.w3.org/2000/svg">
<path d="M16.075 21.4L13.475 17H10.325C10.1083 17 9.92917 16.9292 9.7875 16.7875C9.64583 16.6458 9.575 16.4667 9.575 16.25C9.575 16.0333 9.64583 15.8542 9.7875 15.7125C9.92917 15.5708 10.1083 15.5 10.325 15.5H13.475L16.075 11.1H16.7L15.4 15.5H18.7L19.45 14.5H20L19.475 16.25L20 18H19.45L18.7 17H15.4L16.7 21.4H16.075ZM7.3 12.9L8.6 8.50001H5.3L4.55 9.50001H4L4.525 7.75001L4 6.00001H4.55L5.3 7.00001H8.6L7.3 2.60001H7.925L10.525 7.00001H13.675C13.8917 7.00001 14.0708 7.07084 14.2125 7.21251C14.3542 7.35417 14.425 7.53334 14.425 7.75001C14.425 7.96667 14.3542 8.14584 14.2125 8.28751C14.0708 8.42917 13.8917 8.50001 13.675 8.50001H10.525L7.925 12.9H7.3Z" fill="#01C2D2"/>
</svg>
