<svg width="22" height="20" viewBox="0 0 22 20" fill="none" xmlns="http://www.w3.org/2000/svg">
<path d="M10.9938 0.14595C11.5435 0.14595 12.0932 0.14702 12.6429 0.14595C13.5189 0.14381 14.1783 0.533348 14.6114 1.28674C16.9732 5.39188 19.3286 9.50076 21.6845 13.6096C22.0991 14.3331 22.1054 15.0774 21.7015 15.7976C21.1369 16.8051 20.5483 17.7993 19.9539 18.7897C19.543 19.4736 18.9183 19.8289 18.1264 19.8417C17.1249 19.8583 16.1223 19.8588 15.1207 19.8406C14.34 19.8262 13.7179 19.48 13.3119 18.8026C12.9378 18.1787 12.5519 17.5601 12.2401 16.9004C12.1134 16.6318 12.0592 16.345 12.0597 16.0453C12.0623 15.0025 12.0613 13.959 12.0597 12.9162C12.0597 12.7439 12.048 12.5737 12.2369 12.4785C12.4237 12.3848 12.5541 12.4881 12.6919 12.5941C14.1128 13.6862 15.5358 14.7761 16.9578 15.8666C17.2702 16.1058 17.3776 16.0838 17.5767 15.7398C17.7145 15.5017 17.855 15.2646 17.9939 15.0271C18.1823 14.7039 18.1722 14.599 17.9061 14.324C17.4176 13.8194 16.9248 13.3191 16.4352 12.8156C15.1463 11.4913 13.8606 10.1637 12.5684 8.84314C12.2199 8.48678 12.0453 8.07851 12.0554 7.5734C12.0714 6.80716 12.0666 6.03986 12.0576 5.27309C12.0501 4.6524 11.8601 4.07932 11.5275 3.56083C11.2088 3.06374 10.8054 3.06267 10.4813 3.55762C10.1433 4.07344 9.95656 4.64758 9.94858 5.26774C9.93847 6.06126 9.94272 6.85479 9.94751 7.64831C9.95017 8.12239 9.77775 8.513 9.43716 8.83672C7.53146 10.6474 5.62683 12.4598 3.72167 14.2715C3.39066 14.5867 3.37681 14.6771 3.60565 15.0747C3.72964 15.2903 3.85523 15.5054 3.98029 15.7205C4.19423 16.0892 4.27565 16.1111 4.61836 15.872C6.09407 14.8403 7.56872 13.8065 9.04336 12.7738C9.17427 12.6823 9.30092 12.5844 9.43716 12.502C9.68142 12.3543 9.94112 12.4876 9.94272 12.776C9.94964 13.9173 9.95283 15.0586 9.93899 16.1994C9.93526 16.521 9.83202 16.8314 9.67024 17.1144C9.35786 17.6623 9.0492 18.2129 8.72724 18.755C8.30204 19.4709 7.66237 19.8348 6.83697 19.8439C5.84395 19.8551 4.85039 19.8604 3.85789 19.8417C3.05591 19.8262 2.42743 19.4634 2.01713 18.7641C1.43281 17.7677 0.851669 16.7693 0.291295 15.7596C-0.0950602 15.0635 -0.100378 14.3352 0.295023 13.6423C1.88514 10.8561 3.48964 8.07798 5.08827 5.29663C5.84555 3.97873 6.60708 2.6635 7.35744 1.34185C7.81138 0.542444 8.48032 0.136318 9.39938 0.14595C9.93155 0.151301 10.4637 0.14702 10.9954 0.14702L10.9938 0.14595Z" fill="#8EF27E"/>
</svg>
