<svg width="22" height="22" viewBox="0 0 22 22" fill="none" xmlns="http://www.w3.org/2000/svg">
<path d="M8.09857 10.0263C8.80067 9.24348 9.58605 8.56004 10.4349 7.93888C11.5565 7.11834 12.7681 6.47729 14.0532 5.96706C14.6012 5.74937 15.1633 5.57301 15.7327 5.41864C15.8003 5.40032 15.9252 5.40869 15.9091 5.3077C15.8888 5.18001 15.7681 5.24595 15.6962 5.25851C13.5311 5.49609 10.5525 7.06757 10.525 6.99274C11.2963 6.67928 12.4886 5.83414 15.526 5.03662C15.5849 5.02197 15.6452 5.01203 15.7025 4.99214C15.7551 4.9733 15.8467 4.98063 15.8373 4.90109C15.8248 4.79695 15.7342 4.83777 15.6718 4.84666C15.0795 4.92935 14.4924 5.045 13.9137 5.19309C13.2839 5.35375 12.6583 5.53272 12.0364 5.72163C10.7384 6.11673 9.50329 6.66829 8.29427 7.28056C7.33454 7.76671 6.43363 8.34863 5.56134 8.97764C5.29955 8.69401 5.20743 8.68511 4.92846 8.93002C4.58652 9.2304 4.24718 9.53392 3.9068 9.83639C3.8839 9.8547 3.86048 9.87302 3.83758 9.89133L3.84122 9.88976C3.74806 9.87563 3.67624 9.91174 3.6143 9.97977C3.56955 10.0284 3.50865 10.0593 3.46077 9.99756C3.2911 9.77882 3.10218 9.81231 2.90128 9.94105C2.8992 9.90389 2.89763 9.86674 2.89555 9.82958L2.89711 9.83429C2.91481 9.81545 2.9325 9.79662 2.9502 9.77725L2.94707 9.78092C2.96581 9.76312 2.98455 9.74533 3.00329 9.72702L3.00068 9.72911C3.0621 9.71812 3.09645 9.68149 3.10582 9.61974L3.10269 9.62392C3.12143 9.60509 3.13965 9.58625 3.15838 9.56741L3.15317 9.56061C3.22656 9.58468 3.18596 9.72754 3.29578 9.70608C3.33117 9.69928 3.37125 9.66003 3.3879 9.62497C3.45088 9.49467 3.26403 9.5381 3.26143 9.44914C4.44444 8.27589 5.85176 7.42813 7.30124 6.6437C10.2569 5.04395 13.4317 4.30295 16.772 4.22027C16.8314 4.2187 16.8902 4.20247 16.949 4.19305C17.4023 4.2187 17.8515 4.15119 18.299 4.10095C18.5452 4.07322 18.7997 4.14805 19.0371 4.03711C19.3134 4.02193 19.5908 4.01461 19.8662 3.99001C20.3543 3.94658 20.8363 3.94605 21.3 4.13549C21.3401 4.15171 21.3812 4.16637 21.4192 4.18677C21.7273 4.35109 22.0193 4.54105 21.999 4.94505C21.9808 5.31241 21.7455 5.53219 21.4249 5.67087C21.3219 5.57406 21.2412 5.46678 21.1657 5.34223C21.0669 5.17949 21.0075 4.90475 20.6578 5.07587C19.9291 5.43224 19.1297 5.52644 18.3292 5.61121C17.9732 5.64889 17.6079 5.6379 17.2607 5.75146C17.1645 5.75355 17.0687 5.75565 16.9724 5.75826C15.3559 6.12405 13.9303 6.88389 12.6349 7.90277C11.4306 8.85048 10.4297 9.98605 9.60738 11.2812C9.48716 11.4701 9.37318 11.6627 9.25607 11.8532C9.21704 11.7166 9.12023 11.6015 9.13845 11.4408C9.1499 11.3398 9.06975 11.3027 8.96098 11.3142C8.73926 11.3383 8.5087 11.3142 8.3104 11.4508C8.33226 11.4053 8.3484 11.355 8.37755 11.3142C8.60915 10.9903 8.84023 10.6658 9.10254 10.3649C9.15199 10.3084 9.21028 10.2367 9.17905 10.1546C9.14626 10.0687 9.05622 10.0876 8.99793 10.109C8.81993 10.1755 8.70699 10.164 8.72521 9.93215C8.72833 9.89343 8.68878 9.84895 8.66797 9.86831C8.53421 9.99181 8.2745 9.74952 8.19799 10.0332C8.19643 10.0394 8.13397 10.0295 8.09962 10.0269L8.09857 10.0263ZM3.63148 9.43501C3.61119 9.4167 3.59453 9.39001 3.57892 9.39105C3.5633 9.39158 3.53832 9.41774 3.53571 9.43553C3.53103 9.46903 3.54352 9.50618 3.58828 9.49467C3.60494 9.49048 3.61431 9.45961 3.63148 9.43501Z" fill="#AB08F9"/>
<path d="M8.09858 10.0264C8.13293 10.029 8.1954 10.0389 8.19696 10.0326C8.27347 9.74902 8.5337 9.99131 8.66693 9.86781C8.68775 9.84844 8.7273 9.89345 8.72418 9.93165C8.70596 10.1635 8.8189 10.1745 8.9969 10.1085C9.05519 10.0865 9.14523 10.0682 9.17802 10.1541C9.20924 10.2362 9.15095 10.3074 9.10151 10.3644C8.8392 10.6653 8.60812 10.9898 8.37651 11.3137C8.34737 11.3545 8.33123 11.4048 8.30937 11.4503C8.07465 11.7517 7.88312 12.0819 7.702 12.4163C7.08838 13.5493 6.5065 14.6927 6.36754 16.0072C6.27177 16.9126 6.37535 17.7818 6.76778 18.6039C7.31999 19.7614 8.2287 20.572 9.32218 21.1937C7.7504 21.6809 5.75028 20.7295 5.03777 19.1476C4.5194 17.9963 4.56259 16.8089 4.87174 15.6205C5.35212 13.7759 6.31758 12.1876 7.49278 10.7161C7.62237 10.5539 7.76549 10.4026 7.90289 10.2462C8.08141 10.2812 8.01115 10.0944 8.08662 10.0379L8.09806 10.0269L8.09858 10.0264Z" fill="#AB08F9"/>
<path d="M9.3227 21.1932C8.22921 20.571 7.32102 19.7609 6.76829 18.6033C6.37587 17.7812 6.27229 16.912 6.36805 16.0067C6.50701 14.6921 7.08889 13.5482 7.70251 12.4158C7.88363 12.0814 8.07516 11.7512 8.30989 11.4497C8.50818 11.3137 8.73874 11.3378 8.96046 11.3132C9.06976 11.3011 9.14938 11.3383 9.13793 11.4398C9.11972 11.6005 9.21652 11.7151 9.25556 11.8522C9.01198 12.399 8.72625 12.926 8.51755 13.4896C8.17509 14.4143 7.94505 15.3588 7.95077 16.3515C7.96066 18.0528 8.98648 19.3344 10.6369 19.7457C11.0048 19.8373 11.3796 19.8786 11.7949 19.9576C11.0553 20.6018 10.2788 21.0775 9.32218 21.1932H9.3227Z" fill="#AB08F9"/>
<path d="M11.4904 10.4623C11.1625 11.1535 10.9158 11.8773 10.6899 12.6052C10.5733 12.9809 10.553 13.3891 10.5093 13.7847C10.4328 14.487 10.3813 15.1877 10.5671 15.8863C10.9231 17.227 11.8104 17.9701 13.134 18.2386C13.2146 18.2548 13.3312 18.2265 13.3572 18.3234C13.377 18.3987 13.2771 18.4484 13.2235 18.5018C12.2846 19.4328 10.629 19.4935 9.63753 18.6138C9.30912 18.3228 9.09418 17.9372 8.95313 17.518C8.73038 16.8555 8.67832 16.1741 8.75275 15.4813C8.84904 15.4593 8.82926 15.3808 8.83342 15.3144C8.83759 15.2542 8.83082 15.184 8.91877 15.182C8.97707 15.1804 9.00933 15.2212 9.03275 15.272C9.05253 15.3144 9.02183 15.3824 9.11707 15.4054C9.1025 15.2008 9.35596 15.2301 9.40228 15.0328C9.51314 14.5556 9.60526 14.0773 9.79106 13.6115C9.98832 13.1165 10.1632 12.6068 10.3969 12.1306C10.6759 11.5612 11.0329 11.03 11.3556 10.4821C11.3936 10.4178 11.4435 10.4492 11.4914 10.4628L11.4904 10.4623Z" fill="#FD9535"/>
<path d="M2.90077 9.94002C3.10167 9.81128 3.2906 9.77779 3.46026 9.99654C3.50815 10.0583 3.56904 10.0274 3.6138 9.97874C3.67573 9.91124 3.74808 9.8746 3.84072 9.88873C3.54562 10.2289 3.24374 10.5633 2.95645 10.9097C2.60254 11.3367 2.27153 11.7889 2.03316 12.2865C1.4414 13.5241 1.25247 14.8455 1.26652 16.2145C1.27537 17.069 1.47471 17.8472 1.91034 18.5699C2.169 18.9984 2.42402 19.4323 2.80136 19.7729L2.79981 19.7719C2.81438 19.7928 2.82842 19.8143 2.84299 19.8352C2.87943 19.9121 2.97675 19.9446 3.00122 20.1183C1.78126 19.1382 1.03076 17.9325 0.724729 16.4672C0.190738 13.9082 1.06615 11.7794 2.78263 9.92694C2.79147 9.93478 2.7998 9.94263 2.80865 9.95101C2.80865 9.98555 2.81073 10.0279 2.85549 10.0175C2.87578 10.0128 2.88672 9.96671 2.90181 9.94002L2.90129 9.94054L2.90077 9.94002Z" fill="#AB08F9"/>
<path d="M8.31197 5.53952C7.77174 5.79542 7.22525 6.03876 6.69282 6.30983C5.12624 7.10578 3.69498 8.0943 2.50886 9.40675C1.15775 10.9013 0.26099 12.6167 0.0710222 14.6597C-0.0169354 14.4221 -0.0179692 13.768 0.0392813 13.3425C0.282856 11.535 1.1338 10.0211 2.27048 8.6443C2.4464 8.43131 2.60618 8.20158 2.84559 8.04982C2.86173 8.03308 2.87838 8.01633 2.89451 7.99958C2.91325 7.98179 2.93199 7.96348 2.95073 7.94568C3.07095 7.93574 3.14798 7.84573 3.24063 7.78608C3.86257 7.38575 4.48504 6.98489 5.15331 6.6662C6.03757 6.24442 6.93432 5.8488 7.88155 5.58924C8.01583 5.55261 8.15532 5.43172 8.31145 5.539L8.31197 5.53952Z" fill="#FD9535"/>
<path d="M2.80234 19.7729C2.425 19.4323 2.16998 18.9984 1.91132 18.5699C1.47517 17.8472 1.27635 17.069 1.2675 16.2145C1.25345 14.8455 1.44238 13.5241 2.03414 12.2865C2.27199 11.7894 2.60352 11.3367 2.95743 10.9097C3.24472 10.5633 3.54659 10.2284 3.84169 9.88873L3.83806 9.8903C3.86096 9.87198 3.88437 9.85367 3.90727 9.83535C4.24765 9.53288 4.58699 9.22936 4.92894 8.92899C5.2079 8.68408 5.30002 8.69298 5.56181 8.97661C5.11005 9.38636 4.62239 9.75424 4.18937 10.1854C3.58511 10.7872 3.04904 11.4414 2.61185 12.1777C1.80774 13.533 1.45227 15.0046 1.60112 16.5666C1.69116 17.5102 2.005 18.4097 2.50672 19.2297C2.61445 19.4056 2.75341 19.5647 2.80234 19.7729Z" fill="#AB08F9"/>
<path d="M11.4904 10.4623C11.4425 10.4486 11.3925 10.4172 11.3545 10.4816C11.0319 11.0295 10.6753 11.5607 10.3959 12.13C10.1622 12.6068 9.98729 13.1165 9.79003 13.611C9.60423 14.0767 9.51211 14.555 9.40125 15.0323C9.35545 15.2301 9.10199 15.2008 9.11604 15.4049C9.0208 15.3819 9.05151 15.3143 9.03173 15.2714C9.00831 15.2207 8.97656 15.1799 8.91774 15.1814C8.83031 15.1835 8.83656 15.2542 8.83239 15.3138C8.82823 15.3808 8.84748 15.4593 8.75172 15.4808C8.79908 14.4368 9.10667 13.4618 9.57249 12.5398C10.0857 11.5251 10.7352 10.6067 11.5315 9.78823C11.7777 9.53547 12.0629 9.33034 12.2976 9.06973C12.0285 9.53391 11.7589 9.99755 11.4899 10.4617L11.4904 10.4623Z" fill="#FD9535"/>
<path d="M8.31198 5.53952C8.15584 5.43172 8.01636 5.5526 7.88208 5.58976C6.93484 5.84932 6.0381 6.24494 5.15384 6.66672C4.48557 6.98542 3.8631 7.38627 3.24115 7.7866C3.14851 7.84626 3.07096 7.93626 2.95125 7.94621C3.4613 7.40197 4.07493 6.99588 4.71197 6.62486C6.37744 5.65465 8.18343 5.05599 10.0425 4.60123C10.9101 4.3893 11.7866 4.22184 12.6698 4.08735C12.7609 4.07374 12.8551 4.03554 12.9748 4.12921C12.6417 4.21032 12.3351 4.28411 12.0291 4.35947C10.8919 4.63944 9.77811 4.99581 8.68202 5.40922C8.63414 5.42753 8.5821 5.43486 8.53213 5.44742C8.51288 5.45736 8.49309 5.46783 8.47384 5.47777C8.42023 5.4987 8.36611 5.51964 8.3125 5.54005L8.31198 5.53952Z" fill="#FD9535"/>
<path d="M16.9563 3.23541C16.9423 2.44522 16.9298 1.65502 16.9115 0.864831C16.9084 0.729818 16.9521 0.689 17.088 0.681674C17.61 0.653938 17.839 0.793138 18.0175 1.27877C18.194 1.75864 18.3662 2.2406 18.5406 2.72152C18.5114 2.96957 18.3079 2.89264 18.1617 2.93398C17.763 3.04649 17.2998 2.90049 16.9563 3.23541Z" fill="#AB08F9"/>
<path d="M18.5145 7.1958C18.3839 7.70969 18.1975 8.20526 18.0034 8.69612C17.8795 9.00958 17.4132 9.17966 17.089 9.08337C17.0098 9.05982 17.0026 9.0122 17.0036 8.94783C17.0067 8.79136 17.0093 8.6349 17.0124 8.47895C17.0775 8.40412 17.0525 8.31306 17.0536 8.22829C17.0572 7.84523 17.0681 7.46217 17.0551 7.07963C17.0478 6.86978 17.1014 6.78135 17.3263 6.79861C17.5844 6.81798 17.8452 6.80228 18.1049 6.80332C18.2345 6.80385 18.3865 6.76669 18.4885 6.82112C18.6451 6.90485 18.4437 7.07073 18.5145 7.19528V7.1958Z" fill="#AB08F9"/>
<path d="M16.9562 3.23538C17.2998 2.90099 17.7624 3.04647 18.1616 2.93396C18.3084 2.89262 18.5114 2.96954 18.5405 2.7215C18.706 3.1595 18.871 3.59803 19.0365 4.03604C18.7992 4.14698 18.5447 4.07215 18.2985 4.09988C17.8509 4.15012 17.4023 4.21763 16.9484 4.19199C16.951 3.87329 16.9536 3.55408 16.9557 3.23538H16.9562Z" fill="#AB08F9"/>
<path d="M18.5145 7.19579C18.4443 7.07124 18.6457 6.90535 18.4885 6.82162C18.3865 6.7672 18.2345 6.80435 18.1049 6.80383C17.8452 6.80278 17.5845 6.81901 17.3263 6.79912C17.1015 6.78185 17.0479 6.87029 17.0552 7.08014C17.0687 7.46267 17.0578 7.84573 17.0536 8.22879C17.0526 8.31357 17.0775 8.4041 17.0125 8.47946C17.0099 8.0875 17.0068 7.69555 17.0042 7.30359C16.9984 6.90431 16.9922 6.50502 16.9865 6.10522C16.9849 6.033 16.9833 5.96026 16.9823 5.88805V5.88491C16.9792 5.842 16.9755 5.79961 16.9724 5.7567C17.0687 5.7546 17.1644 5.75251 17.2607 5.74989C17.8416 5.80484 18.4245 5.79123 19.0058 5.80955C18.8622 6.27843 18.7081 6.74417 18.5145 7.19526V7.19579Z" fill="#AB08F9"/>
<path d="M19.0058 5.81006C18.424 5.79174 17.841 5.80535 17.2607 5.7504C17.6079 5.63684 17.9732 5.64783 18.3292 5.61015C19.1292 5.52538 19.9286 5.43118 20.6578 5.07481C21.0075 4.90369 21.0668 5.17843 21.1657 5.34117C21.2417 5.46624 21.3219 5.573 21.4249 5.66981C21.0018 5.92204 20.5355 5.92989 20.0665 5.90111C19.7126 5.87913 19.3597 5.84093 19.0063 5.81058L19.0058 5.81006Z" fill="#AB08F9"/>
<path d="M16.9864 6.10521C16.9921 6.50449 16.9984 6.9043 17.0041 7.30358C16.9713 6.9043 16.9651 6.50502 16.9864 6.10521Z" fill="#AB08F9"/>
<path d="M3.26093 9.44812C3.26353 9.53656 3.45037 9.49365 3.3874 9.62395C3.37074 9.65849 3.33067 9.69774 3.29528 9.70506C3.18546 9.72704 3.22658 9.58418 3.15267 9.55958C3.16724 9.5015 3.20836 9.46905 3.26093 9.44812Z" fill="#AB08F9"/>
<path d="M8.08715 10.0368C8.01168 10.0933 8.08194 10.2801 7.90343 10.2451C7.94663 10.1593 8.0096 10.0912 8.08715 10.0368Z" fill="#AB08F9"/>
<path d="M2.89557 9.82854C2.89765 9.86569 2.89922 9.90285 2.9013 9.94L2.90182 9.93948C2.8706 9.94314 2.83989 9.9468 2.80866 9.95099C2.80033 9.94314 2.79148 9.93529 2.78264 9.92692C2.80866 9.88087 2.83208 9.8322 2.89505 9.82854H2.89557Z" fill="#AB08F9"/>
<path d="M3.10528 9.61868C3.09591 9.67991 3.06156 9.71706 3.00015 9.72805C3.00067 9.65845 3.04231 9.6281 3.10528 9.61868Z" fill="#AB08F9"/>
<path d="M16.9823 5.88492V5.88806L16.9729 5.88596L16.9823 5.88492Z" fill="#AB08F9"/>
<path d="M8.47329 5.47724C8.49255 5.46729 8.51233 5.45683 8.53159 5.44688C8.51233 5.45683 8.49255 5.46729 8.47329 5.47724Z" fill="#FD9535"/>
<path d="M2.95021 9.77621C2.93252 9.79504 2.91482 9.81388 2.89713 9.83325C2.89088 9.7919 2.91066 9.77464 2.95021 9.77621Z" fill="#AB08F9"/>
<path d="M3.00333 9.72595C2.98459 9.74375 2.96585 9.76154 2.94711 9.77985C2.94555 9.74008 2.96117 9.71915 3.00333 9.72595Z" fill="#AB08F9"/>
<path d="M3.15784 9.56637C3.13911 9.58521 3.12089 9.60405 3.10215 9.62289C3.09903 9.5826 3.11881 9.56533 3.15784 9.56637Z" fill="#AB08F9"/>
<path d="M2.89451 7.99959C2.87838 8.01633 2.86172 8.03308 2.84559 8.04982C2.86172 8.03308 2.87838 8.01633 2.89451 7.99959Z" fill="#F4613B"/>
<path d="M2.84352 19.8352C2.82895 19.8143 2.81489 19.7928 2.80032 19.7719C2.83623 19.7782 2.84925 19.8001 2.84352 19.8352Z" fill="#AB08F9"/>
<path d="M3.63151 9.435C3.61433 9.4596 3.60496 9.49047 3.58831 9.49466C3.54355 9.50617 3.53106 9.46902 3.53574 9.43553C3.53834 9.41773 3.56333 9.39157 3.57894 9.39104C3.59456 9.39052 3.61121 9.41669 3.63151 9.435Z" fill="#AB08F9"/>
<path d="M3.90678 9.83534C3.88388 9.85366 3.86046 9.87197 3.83756 9.89029C3.86046 9.87197 3.88388 9.85366 3.90678 9.83534Z" fill="#AB08F9"/>
<path d="M2.80863 9.95049C2.83986 9.94683 2.87057 9.94317 2.9018 9.93898C2.8867 9.96619 2.87577 10.0117 2.85547 10.0164C2.81071 10.0269 2.80863 9.98451 2.80863 9.94997V9.95049Z" fill="#AB08F9"/>
</svg>
