<svg width="22" height="16" viewBox="0 0 22 16" fill="none" xmlns="http://www.w3.org/2000/svg">
<path d="M14.2893 8.4623C13.4076 8.93079 12.5294 9.40587 11.643 9.86558C11.0805 10.1571 10.5071 10.4272 9.93813 10.7055C9.03244 11.1486 8.10928 11.5521 7.17128 11.9213C6.94115 12.0118 6.72979 12.1216 6.59223 12.3648C6.52979 12.4754 6.35817 12.6849 6.17389 12.4241C6.10053 12.3205 5.98087 12.3652 5.88437 12.3986C5.48305 12.5382 5.07169 12.5549 4.65509 12.5062C4.48173 12.486 4.32801 12.5409 4.17168 12.6023C3.39175 12.9088 2.61052 13.2122 1.80484 13.459C2.52537 13.1007 3.24939 12.7494 3.96425 12.3797C4.15334 12.2818 4.37605 12.234 4.51928 12.0517C4.65247 11.8818 4.69133 11.7593 4.40792 11.7308C4.06687 11.6965 3.72713 11.65 3.38695 11.6061C3.31883 11.5973 3.22451 11.6144 3.20354 11.5253C3.18258 11.4366 3.27473 11.4076 3.32975 11.3655C3.68827 11.0906 4.1101 11.1389 4.52103 11.1367C4.56164 11.1367 4.60312 11.1609 4.64286 11.1578C4.73893 11.1508 4.87256 11.2144 4.91361 11.0801C4.94636 10.9729 4.82409 10.9308 4.75815 10.8711C4.71972 10.8364 4.66077 10.8219 4.6302 10.7832C4.21316 10.2603 3.74198 10.2937 3.17734 10.5554C2.45244 10.8913 1.69217 11.1508 0.946309 11.4419C0.853731 11.4779 0.763341 11.5402 0.617051 11.4761C0.967273 11.2342 1.33802 11.084 1.69217 10.9062C2.23148 10.6353 2.77515 10.3723 3.32145 10.1159C3.52363 10.021 3.58695 9.92881 3.37472 9.77908C3.16075 9.62848 3.23629 9.55559 3.42975 9.44626C3.9625 9.14462 4.47998 9.06822 5.05946 9.34572C5.54593 9.57843 6.07912 9.71015 6.57302 9.92969C6.92542 10.0864 7.20752 10.0254 7.5036 9.81728C8.23636 9.30181 8.97785 8.79951 9.71236 8.28623C9.98703 8.09435 10.2936 7.96614 10.6049 7.82783C10.5325 7.68513 10.4019 7.70489 10.3006 7.68645C8.92894 7.43837 7.55556 7.19732 6.18349 6.95056C6.02148 6.92158 5.87869 6.94178 5.73589 7.02696C4.82365 7.57141 3.91578 8.12333 2.99306 8.64978C2.09174 9.16394 1.23801 9.76108 0.296082 10.2094C0.592155 9.88402 0.975132 9.67107 1.33016 9.42563C2.67908 8.49127 4.07605 7.62059 5.3717 6.61774C5.93196 6.18393 6.47957 6.11017 7.11582 6.07636C9.06912 5.97274 11.0259 5.95737 12.9775 5.81511C13.4443 5.7813 13.8338 5.61182 14.2155 5.35891C15.4391 4.5475 16.6303 3.68471 17.9291 2.99185C18.7395 2.55936 19.5653 2.21337 20.5177 2.36485C20.7763 2.40613 21.033 2.31041 21.2902 2.27396C21.5405 2.2384 21.7846 2.24103 21.93 2.48033C22.0736 2.71743 21.9732 2.94838 21.8357 3.15519C21.4536 3.72862 20.9313 4.16243 20.4003 4.58394C19.5334 5.27197 18.6155 5.88843 17.6684 6.45484C17.0806 6.80654 16.629 7.27152 16.2242 7.8129C15.5247 8.74901 14.7936 9.66097 14.0862 10.5914C13.9115 10.8214 13.6583 10.8785 13.4198 10.969C12.2879 11.3988 11.1539 11.823 10.018 12.2423C9.80493 12.3209 9.58004 12.367 9.27305 12.4526C10.7316 11.7611 12.1098 11.1051 13.4901 10.4548C13.7137 10.3494 13.7958 10.1567 13.8578 9.9411C13.9967 9.46119 14.105 8.96987 14.3552 8.52947C14.391 8.50137 14.4578 8.47415 14.408 8.42146C14.367 8.37799 14.3225 8.42805 14.2884 8.46186L14.2893 8.4623Z" fill="#FC7803"/>
<path d="M13.5477 9.3593C13.5019 9.74876 13.4202 10.0342 13.0233 10.2133C11.6682 10.8249 10.3324 11.48 8.99133 12.1237C8.86994 12.1821 8.65247 12.1984 8.67911 12.3705C8.71273 12.5909 8.78959 12.8271 8.95291 12.9896C9.04854 13.0849 9.19003 12.9733 9.30269 12.9321C10.6796 12.4311 12.039 11.8708 13.439 11.4475C14.0089 11.2754 14.3456 10.9466 14.6704 10.5259C15.3587 9.63416 16.0504 8.7446 16.7299 7.84625C17.0107 7.47523 17.329 7.15953 17.7299 6.91804C18.2377 6.61157 18.7299 6.27963 19.2264 5.95427C19.519 5.76283 19.5382 5.76547 19.6146 6.10751C20.0644 8.11672 19.8325 10.0315 18.8308 11.841C16.6491 15.7803 11.504 16.9918 7.74853 14.4535C7.24415 14.1127 6.80528 13.7018 6.37995 13.2706C6.21794 13.1059 6.17078 12.9984 6.45244 12.9242C6.67777 12.8649 6.86991 12.7354 6.99437 12.5277C7.07908 12.3872 7.23149 12.3604 7.36206 12.3077C9.39789 11.4835 11.3612 10.5053 13.2993 9.47434C13.3709 9.43614 13.4469 9.40584 13.5482 9.35974L13.5477 9.3593Z" fill="#01A2C9"/>
<path d="M4.44983 6.77009C4.61053 5.7005 4.94198 4.78064 5.4743 3.94771C7.06602 1.45772 9.34552 0.17781 12.291 0.21601C14.3054 0.241916 16.0487 1.01644 17.5094 2.42236C17.6609 2.56814 17.6823 2.63576 17.4762 2.75079C16.2216 3.45244 15.0583 4.29766 13.8587 5.08668C13.6399 5.23069 13.4185 5.34134 13.1451 5.36856C11.4975 5.53058 9.84116 5.50467 8.19092 5.60478C7.49572 5.64694 6.79964 5.67548 6.10443 5.71236C5.83063 5.72685 5.60224 5.84979 5.42233 6.05001C5.16599 6.33497 4.82276 6.48996 4.4507 6.76965L4.44983 6.77009Z" fill="#01A2C9"/>
<path d="M9.38307 8.003C8.61756 8.53033 7.89048 9.02956 7.16558 9.53142C7.04287 9.61617 6.92889 9.62407 6.78828 9.56743C6.03849 9.26622 5.29612 8.94262 4.51139 8.73845C4.41358 8.71299 4.37209 8.66645 4.37209 8.56678C4.37209 8.45569 4.33279 8.34592 4.4686 8.26776C4.9542 7.98763 5.43455 7.69828 5.91578 7.41025C6.00224 7.35844 6.09002 7.35712 6.18522 7.37469C7.20575 7.56261 8.22672 7.74834 9.2477 7.93626C9.27564 7.94153 9.30054 7.96173 9.38351 8.003H9.38307Z" fill="#01A2C9"/>
<path d="M0.00874317 10.367C0.0576521 10.3345 0.106999 10.3016 0.185166 10.2493C0.139751 10.363 0.0725005 10.3635 0.00437737 10.3622L0.00874317 10.367Z" fill="#FC7803"/>
<path d="M0.0043658 10.3622C0.00305574 10.3705 0.00131006 10.3784 0 10.3868C0.00305681 10.3802 0.00611148 10.374 0.0087316 10.3675L0.0043658 10.3626V10.3622Z" fill="#FC7803"/>
<path d="M14.2893 8.4623C14.3233 8.42806 14.3683 8.37844 14.4089 8.42191C14.4583 8.4746 14.3919 8.50182 14.3561 8.52992C14.3338 8.50753 14.3116 8.48513 14.2893 8.46274V8.4623Z" fill="#F1F1F1"/>
</svg>
