<svg width="19" height="22" viewBox="0 0 19 22" fill="none" xmlns="http://www.w3.org/2000/svg">
<path d="M4.09977 15.1795C3.29241 15.2717 2.459 15.3674 1.62503 15.4619C1.475 15.4789 1.32495 15.4983 1.17435 15.5011C0.869186 15.5068 0.644982 15.3492 0.544203 15.0714C0.444557 14.7958 0.511936 14.5294 0.761052 14.3364C1.05206 14.111 1.35666 13.9038 1.65617 13.6886C2.92892 12.7738 4.20168 11.8584 5.475 10.9436C5.8985 10.6396 6.09609 10.6379 6.52072 10.9413C8.40437 12.2853 10.2869 13.6305 12.1694 14.9763C12.5686 15.2615 12.6354 15.459 12.5006 15.9241C11.969 17.7623 11.4374 19.6005 10.9046 21.4381C10.7936 21.8212 10.5592 22.0124 10.2241 21.9994C9.88888 21.9863 9.67826 21.787 9.58711 21.3885C9.39121 20.5295 9.19928 19.6693 9.00338 18.8103C8.86807 18.2183 8.41569 18.0509 7.92482 18.4044C6.83607 19.1877 5.74676 19.9693 4.65688 20.7504C4.33416 20.9815 4.08221 21.0014 3.82177 20.8227C3.55794 20.6422 3.48038 20.3741 3.59191 19.9893C3.952 18.7426 4.31718 17.497 4.67387 16.2492C4.72539 16.0698 4.77634 15.8769 4.76389 15.6953C4.74124 15.3748 4.45815 15.1658 4.1009 15.1795H4.09977Z" fill="#2E3192"/>
<path d="M15.4719 8.33292C15.224 8.23046 14.9482 8.16784 14.7325 8.01812C13.6998 7.30312 12.6773 6.57274 11.6633 5.83156C10.8707 5.25204 10.8825 4.18808 11.6775 3.61539C13.2254 2.49962 14.7761 1.38841 16.328 0.277197C16.8274 -0.0803038 17.4286 -0.0911199 17.8867 0.239625C18.3855 0.599973 18.5768 1.13566 18.4019 1.74477C17.8708 3.59319 17.3358 5.44104 16.794 7.28661C16.6122 7.9054 16.1066 8.27941 15.4725 8.33292H15.4719Z" fill="#2E3192"/>
<path d="M11.2459 7.44831C12.6535 7.46425 13.7405 8.5692 13.7264 9.9696C13.7122 11.3626 12.564 12.4841 11.1735 12.4624C9.83561 12.4419 8.73158 11.296 8.74007 9.93829C8.74856 8.52309 9.84637 7.43237 11.2459 7.44831Z" fill="#2E3192"/>
</svg>
